# xmcd
#
# Track frame offsets:
#	150
#	10355
#	16280
#	23547
#	31205
#	37967
#	46965
#	54180
#	62495
#	73287
#	83235
#	91542
#	98517
#	105020
#	110870
#	117177
#	121605
#	126380
#	132617
#	140032
#	146045
#	156802
#	164250
#	173322
#	182692
#	188210
#	193927
#	200592
#
# Disc length: 2765 seconds
#
# Revision: 1
# Processed by: cddbd v1.5.1PL0 Copyright (c) Steve Scherf et al.
# Submitted via: CDex 1.50Beta5
#
DISCID=740acb1c
DTITLE=Z-KAI - 速読英単語
DYEAR=1900
DGENRE=
TTITLE0=33.変化する新聞の役割
TTITLE1=34.変化する夫婦の役割分担
TTITLE2=35.女性が家を出る原因
TTITLE3=36.女性が家を出る原因
TTITLE4=37.人間に本当に適する環境は
TTITLE5=38.物質の豊かさと余暇
TTITLE6=39.人類の希望を担う生物工学
TTITLE7=40.動物に色がわかるか
TTITLE8=41.水不足の主因
TTITLE9=42.死に追いやられる鳥
TTITLE10=43.科学の功績と罪
TTITLE11=44.蚊は謙虚な動物
TTITLE12=45.蚊は謙虚な動物
TTITLE13=46.小切手の危険性
TTITLE14=47.小切手の危険性
TTITLE15=48.幸福も不幸も永久には続かない
TTITLE16=49.新しい考えは敵を生みやすい
TTITLE17=50.大きな悲しみを乗り越えるには
TTITLE18=51.死について
TTITLE19=52.友人の意義
TTITLE20=53.66歳で初めて成功したカーネル・サンダース
TTITLE21=54.入院して初めて知った日常の色彩
TTITLE22=55.絵を見るより絵を描こう
TTITLE23=56.絵を見るより絵を描こう
TTITLE24=57.退屈に悩まされるお金持ち
TTITLE25=58.退屈に悩まされるお金持ち
TTITLE26=59.人はレストランでどこにすわるか
TTITLE27=60.精神は鍛えることができるか
EXTD=
EXTT0=
EXTT1=
EXTT2=
EXTT3=
EXTT4=
EXTT5=
EXTT6=
EXTT7=
EXTT8=
EXTT9=
EXTT10=
EXTT11=
EXTT12=
EXTT13=
EXTT14=
EXTT15=
EXTT16=
EXTT17=
EXTT18=
EXTT19=
EXTT20=
EXTT21=
EXTT22=
EXTT23=
EXTT24=
EXTT25=
EXTT26=
EXTT27=
PLAYORDER=
